<svg id="AFA_Store_NEG" xmlns="http://www.w3.org/2000/svg" xmlns:xlink="http://www.w3.org/1999/xlink" width="208.987" height="90" viewBox="0 0 208.987 90">
  <defs>
    <clipPath id="clip-path">
      <rect id="Rectangle_4317" data-name="Rectangle 4317" width="208.987" height="90" fill="none"/>
    </clipPath>
  </defs>
  <rect id="Rectangle_4315" data-name="Rectangle 4315" width="0.935" height="89.67" transform="translate(82.397 0.33)" fill="#fff"/>
  <g id="Group_8035" data-name="Group 8035">
    <g id="Group_8034" data-name="Group 8034" clip-path="url(#clip-path)">
      <path id="Path_19865" data-name="Path 19865" d="M488.028,325.509a.047.047,0,0,0,.06-.017l1.41-2.18a.048.048,0,0,0-.029-.071c-2.031-.7-3.931.645-6.83.719a.121.121,0,0,0-.1.184l3.13,4.831a.075.075,0,0,0,.141-.044l-.674-3.059a.054.054,0,0,1,.037-.061c.244-.089,2.016-.691,2.855-.3m3.38-5.165-1.16,1.8a.089.089,0,0,1-.111.036c-2.677-1.346-5.766,1.13-8.492.539a.1.1,0,0,1-.062-.041l-1.757-2.705a.121.121,0,0,1,.125-.185,15.936,15.936,0,0,0,2.06.339c4.136.223,6.376-2.259,9.374.093a.093.093,0,0,1,.023.124" transform="translate(-379.992 -252.796)" fill="#fff"/>
      <path id="Path_19866" data-name="Path 19866" d="M568.711,331.887a.69.69,0,0,0-1.379,0,.69.69,0,0,0,1.379,0m-1.259,6.019h1.119a.063.063,0,0,0,.063-.063v-4.519a.063.063,0,0,0-.063-.063h-1.119a.063.063,0,0,0-.063.063v4.519a.063.063,0,0,0,.063.063m-15.336-4.583a.063.063,0,0,1,.063-.063h1.108a.063.063,0,0,1,.063.063v4.519a.063.063,0,0,1-.063.063H552.18a.063.063,0,0,1-.063-.063V337.5a1.717,1.717,0,0,1-1.251.374h-.069a2.265,2.265,0,0,1-1.63-.6,2.4,2.4,0,0,1-.649-1.765,2.174,2.174,0,0,1,2.305-2.335h.022a1.966,1.966,0,0,1,1.273.341Zm-.24,3a1.262,1.262,0,0,0,.27-.834,1.193,1.193,0,1,0-1.209,1.227,1.27,1.27,0,0,0,.939-.393m14.836,1.579a.063.063,0,0,0,.063-.063v-1.012a.063.063,0,0,0-.063-.063c-.114,0-.475,0-.55,0-.324-.014-.468-.173-.468-.517v-1.727h1.017a.063.063,0,0,0,.063-.063v-1.124a.063.063,0,0,0-.063-.063H565.7v-.983a.063.063,0,0,0-.063-.063h-1.119a.063.063,0,0,0-.063.063v3.96a1.5,1.5,0,0,0,1.633,1.658h.62Zm5.783-1.449a.064.064,0,0,0-.087,0,1.221,1.221,0,0,1-.76.279,1.188,1.188,0,0,1,0-2.374,1.223,1.223,0,0,1,.76.279.063.063,0,0,0,.087,0l.717-.756a.064.064,0,0,0,0-.091,2.126,2.126,0,0,0-1.579-.622,2.381,2.381,0,1,0,0,4.762,2.126,2.126,0,0,0,1.579-.622.064.064,0,0,0,0-.091Zm-23.687-4.316v-1.087a.079.079,0,0,0-.079-.079H544.7a.079.079,0,0,0-.079.079v6.773a.079.079,0,0,0,.079.079h1.087a.079.079,0,0,0,.079-.079v-2.764a.079.079,0,0,1,.079-.079h2.027a.079.079,0,0,0,.079-.079v-1.087a.079.079,0,0,0-.079-.079h-2.027a.079.079,0,0,1-.079-.079V332.3a.079.079,0,0,1,.079-.079h2.782a.079.079,0,0,0,.079-.079m13.765,1.183a.063.063,0,0,1,.063-.063h1.108a.063.063,0,0,1,.063.063v4.519a.063.063,0,0,1-.063.063h-1.108a.063.063,0,0,1-.063-.063V337.5a1.716,1.716,0,0,1-1.251.374h-.069a2.266,2.266,0,0,1-1.63-.6,2.4,2.4,0,0,1-.649-1.765,2.174,2.174,0,0,1,2.305-2.335h.021a1.967,1.967,0,0,1,1.273.341Zm-.24,3a1.262,1.262,0,0,0,.27-.834,1.193,1.193,0,1,0-1.209,1.227,1.269,1.269,0,0,0,.939-.393m11.232.761a.064.064,0,0,0,.006.083,2.62,2.62,0,0,0,2.01.754,1.855,1.855,0,0,0,1.811-.923,1.371,1.371,0,0,0,.124-.578c0-1.189-1.026-1.408-1.92-1.465-.714-.045-.714-.3-.714-.378,0-.3.483-.334.69-.334a1.36,1.36,0,0,1,.95.314.063.063,0,0,0,.09-.005l.632-.735a.064.064,0,0,0-.007-.09,2.39,2.39,0,0,0-1.681-.546,2.5,2.5,0,0,0-1.245.311,1.254,1.254,0,0,0-.656,1.12c0,.827.66,1.332,1.86,1.422.678.039.765.236.765.4,0,.248-.328.378-.652.378H575.6a2.058,2.058,0,0,1-1.361-.52.063.063,0,0,0-.095.007Zm-17.032-3.88a1.956,1.956,0,0,1,1.909,2.2v2.439a.063.063,0,0,1-.063.063H557.26a.063.063,0,0,1-.063-.063v-2.43a.938.938,0,0,0-.943-1.055h-.023a1.03,1.03,0,0,0-.98,1.026v2.46a.063.063,0,0,1-.063.063h-1.11a.063.063,0,0,1-.063-.063v-4.511a.063.063,0,0,1,.063-.063h1.073a.063.063,0,0,1,.063.063l0,.4a1.92,1.92,0,0,1,1.317-.526" transform="translate(-431.326 -262.122)" fill="#fff"/>
      <path id="Path_19867" data-name="Path 19867" d="M718.631,340.8h-4.4V334.85h4.372v.927h-3.419v1.608h3.283v.885h-3.283v1.6h3.445Z" transform="translate(-565.65 -265.191)" fill="#fff"/>
      <path id="Path_19868" data-name="Path 19868" d="M741.164,343.314h1.063v.026l-1.412,2.033,1.505,2.109v.026h-1.055l-1.029-1.523-1.029,1.523h-1.055v-.026l1.506-2.109-1.412-2.033v-.026H739.3l.936,1.5Z" transform="translate(-584.594 -271.894)" fill="#fff"/>
      <path id="Path_19869" data-name="Path 19869" d="M763.812,346.443a1.355,1.355,0,0,0,.532-.1,1.31,1.31,0,0,0,.421-.28,1.244,1.244,0,0,0,.276-.425,1.467,1.467,0,0,0,.1-.545,1.331,1.331,0,0,0-.357-.965,1.285,1.285,0,0,0-.97-.37,1.4,1.4,0,0,0-.549.1,1.183,1.183,0,0,0-.412.285,1.3,1.3,0,0,0-.264.425,1.436,1.436,0,0,0-.094.523,1.417,1.417,0,0,0,.1.528,1.319,1.319,0,0,0,.272.43,1.278,1.278,0,0,0,.417.289,1.313,1.313,0,0,0,.532.106m-2.271,2.688V342.99h.825l.051.68a1.556,1.556,0,0,1,.646-.574,1.906,1.906,0,0,1,.834-.191,2.177,2.177,0,0,1,.859.166,2.025,2.025,0,0,1,.672.455,1.992,1.992,0,0,1,.434.693,2.439,2.439,0,0,1,.153.872,2.558,2.558,0,0,1-.149.889,2.064,2.064,0,0,1-.421.7,1.852,1.852,0,0,1-.668.455,2.316,2.316,0,0,1-.88.161,2.526,2.526,0,0,1-.4-.034,1.757,1.757,0,0,1-.408-.119,1.654,1.654,0,0,1-.374-.221,1.219,1.219,0,0,1-.293-.332v2.543Z" transform="translate(-603.117 -271.57)" fill="#fff"/>
      <path id="Path_19870" data-name="Path 19870" d="M789.79,344.659a1,1,0,0,0-.374-.761,1.4,1.4,0,0,0-.867-.251,1.43,1.43,0,0,0-.842.251,1.164,1.164,0,0,0-.459.761Zm-2.56.74a1.111,1.111,0,0,0,.421.77,1.486,1.486,0,0,0,.948.285,2.145,2.145,0,0,0,.672-.115,1.214,1.214,0,0,0,.544-.336l.57.553a1.829,1.829,0,0,1-.374.315,2.433,2.433,0,0,1-.447.225,2.52,2.52,0,0,1-.489.132,3.008,3.008,0,0,1-.493.042,2.633,2.633,0,0,1-.936-.157,1.944,1.944,0,0,1-1.165-1.148,2.482,2.482,0,0,1-.161-.914,2.343,2.343,0,0,1,.161-.88,1.994,1.994,0,0,1,1.144-1.144,2.4,2.4,0,0,1,.9-.162,2.575,2.575,0,0,1,.923.158,1.785,1.785,0,0,1,.7.472,1.918,1.918,0,0,1,.417.791,3.105,3.105,0,0,1,.072,1.114Z" transform="translate(-622.741 -271.538)" fill="#fff"/>
      <path id="Path_19871" data-name="Path 19871" d="M812.159,342.958l.059.553a1.113,1.113,0,0,1,.562-.523,1.92,1.92,0,0,1,.672-.123,1.739,1.739,0,0,1,.583.1,1.331,1.331,0,0,1,.455.259l-.4.765a1.268,1.268,0,0,0-.328-.191,1.152,1.152,0,0,0-.412-.064,1.294,1.294,0,0,0-.434.072,1.035,1.035,0,0,0-.357.213,1.024,1.024,0,0,0-.247.357,1.27,1.27,0,0,0-.094.506v2.271h-.876v-4.194Z" transform="translate(-642.558 -271.538)" fill="#fff"/>
      <path id="Path_19872" data-name="Path 19872" d="M829.82,340.772h-.876v-4.211h.876Zm-.978-5.427a.479.479,0,0,1,.17-.4.6.6,0,0,1,.748,0,.479.479,0,0,1,.17.4.491.491,0,0,1-.17.408.583.583,0,0,1-.748,0,.491.491,0,0,1-.17-.408" transform="translate(-656.417 -265.158)" fill="#fff"/>
      <path id="Path_19873" data-name="Path 19873" d="M841.513,344.659a1.006,1.006,0,0,0-.374-.761,1.4,1.4,0,0,0-.867-.251,1.43,1.43,0,0,0-.842.251,1.164,1.164,0,0,0-.459.761Zm-2.56.74a1.11,1.11,0,0,0,.421.77,1.486,1.486,0,0,0,.948.285,2.146,2.146,0,0,0,.672-.115,1.213,1.213,0,0,0,.544-.336l.57.553a1.836,1.836,0,0,1-.374.315,2.432,2.432,0,0,1-.447.225,2.519,2.519,0,0,1-.489.132,3.009,3.009,0,0,1-.493.042,2.633,2.633,0,0,1-.936-.157,1.944,1.944,0,0,1-1.165-1.148,2.482,2.482,0,0,1-.161-.914,2.343,2.343,0,0,1,.161-.88,1.994,1.994,0,0,1,1.144-1.144,2.4,2.4,0,0,1,.9-.162,2.575,2.575,0,0,1,.923.158,1.784,1.784,0,0,1,.7.472,1.917,1.917,0,0,1,.417.791,3.108,3.108,0,0,1,.072,1.114Z" transform="translate(-663.704 -271.538)" fill="#fff"/>
      <path id="Path_19874" data-name="Path 19874" d="M866.247,347.184v-2.245a1.307,1.307,0,0,0-.293-.885,1.047,1.047,0,0,0-.838-.34,1.11,1.11,0,0,0-.85.378,1.259,1.259,0,0,0-.238.408,1.414,1.414,0,0,0-.085.489v2.194h-.876v-4.2h.8l.051.612a1.811,1.811,0,0,1,1.412-.689,1.882,1.882,0,0,1,.71.132,1.6,1.6,0,0,1,.57.387,1.828,1.828,0,0,1,.383.634,2.5,2.5,0,0,1,.14.872v2.254Z" transform="translate(-683.522 -271.57)" fill="#fff"/>
      <path id="Path_19875" data-name="Path 19875" d="M890.583,346.615a2.159,2.159,0,0,1-.744.506,2.337,2.337,0,0,1-.846.149,2.585,2.585,0,0,1-.855-.14,2.005,2.005,0,0,1-.706-.417,1.943,1.943,0,0,1-.476-.689,2.714,2.714,0,0,1,0-1.914,1.942,1.942,0,0,1,.476-.689,2.016,2.016,0,0,1,.7-.417,2.575,2.575,0,0,1,.859-.14,2.187,2.187,0,0,1,.8.145,2.146,2.146,0,0,1,.71.476l-.553.57a1.4,1.4,0,0,0-.455-.268,1.483,1.483,0,0,0-.5-.089,1.418,1.418,0,0,0-.527.1,1.286,1.286,0,0,0-.43.276,1.249,1.249,0,0,0-.285.43,1.633,1.633,0,0,0,0,1.148,1.256,1.256,0,0,0,.289.425,1.164,1.164,0,0,0,.425.259,1.541,1.541,0,0,0,.515.085,1.626,1.626,0,0,0,.532-.089,1.163,1.163,0,0,0,.463-.3Z" transform="translate(-702.303 -271.538)" fill="#fff"/>
      <path id="Path_19876" data-name="Path 19876" d="M910.573,344.659a1.006,1.006,0,0,0-.374-.761,1.4,1.4,0,0,0-.867-.251,1.429,1.429,0,0,0-.842.251,1.163,1.163,0,0,0-.459.761Zm-2.56.74a1.111,1.111,0,0,0,.421.77,1.486,1.486,0,0,0,.948.285,2.145,2.145,0,0,0,.672-.115A1.214,1.214,0,0,0,910.6,346l.57.553a1.829,1.829,0,0,1-.374.315,2.433,2.433,0,0,1-.447.225,2.516,2.516,0,0,1-.489.132,3.009,3.009,0,0,1-.493.042,2.633,2.633,0,0,1-.936-.157,1.944,1.944,0,0,1-1.165-1.148,2.482,2.482,0,0,1-.161-.914,2.343,2.343,0,0,1,.161-.88,1.994,1.994,0,0,1,1.144-1.144,2.4,2.4,0,0,1,.9-.162,2.575,2.575,0,0,1,.923.158,1.785,1.785,0,0,1,.7.472,1.917,1.917,0,0,1,.417.791,3.108,3.108,0,0,1,.072,1.114Z" transform="translate(-718.398 -271.538)" fill="#fff"/>
      <path id="Path_19877" data-name="Path 19877" d="M450.176,336.577l-1.259,2.832h2.518Zm1.607,3.7H448.56l-.561,1.25h-1.012l2.671-5.954h1.038l2.671,5.954h-1.012Z" transform="translate(-353.999 -265.763)" fill="#fff"/>
      <path id="Path_19878" data-name="Path 19878" d="M459.807,86.815a9.735,9.735,0,0,1-3.711-.7,8.69,8.69,0,0,1-2.946-1.947,9,9,0,0,1-1.931-2.962,10.511,10.511,0,0,1,0-7.539,9.165,9.165,0,0,1,1.931-3,8.574,8.574,0,0,1,2.946-1.964,10.2,10.2,0,0,1,7.423,0,8.762,8.762,0,0,1,2.962,1.964,9.032,9.032,0,0,1,1.947,3,10.511,10.511,0,0,1,0,7.539,8.755,8.755,0,0,1-4.909,4.91,9.736,9.736,0,0,1-3.711.7m0-2.1a6.976,6.976,0,0,0,2.779-.549,6.714,6.714,0,0,0,2.214-1.514,7.022,7.022,0,0,0,1.464-2.3,7.825,7.825,0,0,0,.533-2.929,7.955,7.955,0,0,0-.533-2.946A6.985,6.985,0,0,0,464.8,72.17a6.728,6.728,0,0,0-2.214-1.515,7.309,7.309,0,0,0-5.558,0,6.714,6.714,0,0,0-2.213,1.515,6.964,6.964,0,0,0-1.465,2.313,7.942,7.942,0,0,0-.533,2.946,7.812,7.812,0,0,0,.533,2.929,7.191,7.191,0,0,0,1.465,2.313,6.384,6.384,0,0,0,2.213,1.514,7.162,7.162,0,0,0,2.779.533" transform="translate(-356.798 -53.861)" fill="#fff"/>
      <path id="Path_19879" data-name="Path 19879" d="M560.969,103.329h-2.13V89.449H571.62v2H560.969v3.495h6.89v2h-6.89Z" transform="translate(-442.583 -70.841)" fill="#fff"/>
      <path id="Path_19880" data-name="Path 19880" d="M637.767,103.2h-2.13V89.322h12.781v2H637.767v3.495h6.89v2h-6.89Zm13.547-13.913h2.2v13.946h-2.2Z" transform="translate(-503.405 -70.714)" fill="#fff"/>
      <path id="Path_19881" data-name="Path 19881" d="M756.314,98.573a7.635,7.635,0,0,1-3.079,2.829,9.665,9.665,0,0,1-4.41.966,10,10,0,0,1-3.395-.549,8.08,8.08,0,0,1-2.646-1.531,6.99,6.99,0,0,1,0-10.485,8.329,8.329,0,0,1,2.646-1.548,10.507,10.507,0,0,1,7.539.283,7.428,7.428,0,0,1,2.979,2.413l-1.731,1.2a5.842,5.842,0,0,0-2.247-1.814,7.911,7.911,0,0,0-5.625-.248,6.1,6.1,0,0,0-1.947,1.118,4.92,4.92,0,0,0-1.281,1.7,5.044,5.044,0,0,0-.45,2.12,4.887,4.887,0,0,0,.466,2.12,5.2,5.2,0,0,0,1.281,1.7,5.881,5.881,0,0,0,1.947,1.119,7.323,7.323,0,0,0,2.463.4,6.657,6.657,0,0,0,5.759-3Z" transform="translate(-586.403 -69.447)" fill="#fff"/>
      <rect id="Rectangle_4316" data-name="Rectangle 4316" width="2.197" height="13.946" transform="translate(173.938 18.575)" fill="#fff"/>
      <path id="Path_19882" data-name="Path 19882" d="M865.572,89.449h1.365l7.123,13.88h-2.33l-1.8-3.528H862.61l-1.8,3.528h-2.3Zm3.395,8.521-2.7-5.326-2.729,5.326Z" transform="translate(-679.918 -70.841)" fill="#fff"/>
      <path id="Path_19883" data-name="Path 19883" d="M944.754,89.449h2.13v11.883H957.2v2H944.754Z" transform="translate(-748.216 -70.841)" fill="#fff"/>
      <path id="Path_19884" data-name="Path 19884" d="M450.538,206.722a15.156,15.156,0,0,0,3.978,2.263,11.482,11.482,0,0,0,4.044.766,8.815,8.815,0,0,0,2.33-.283,5.394,5.394,0,0,0,1.747-.8,3.925,3.925,0,0,0,1.115-1.2,2.883,2.883,0,0,0,.4-1.481,2.725,2.725,0,0,0-1.048-2.13,5.419,5.419,0,0,0-3.145-1.065q-1.165-.1-2.18-.166t-1.947-.166a15.516,15.516,0,0,1-1.747-.283,7.125,7.125,0,0,1-1.514-.516,3.943,3.943,0,0,1-2.563-3.695,4.018,4.018,0,0,1,.483-1.93,4.814,4.814,0,0,1,1.4-1.581,6.992,6.992,0,0,1,2.2-1.065,10.06,10.06,0,0,1,2.879-.383,13.537,13.537,0,0,1,4.46.749,15.737,15.737,0,0,1,4.128,2.18l-1.3,1.864a11.375,11.375,0,0,0-7.256-2.7,6.2,6.2,0,0,0-3.4.815,2.325,2.325,0,0,0-1.265,1.947,1.965,1.965,0,0,0,.865,1.6,3.69,3.69,0,0,0,1.331.632,11.688,11.688,0,0,0,1.7.3q.931.1,2.03.15t2.33.183a7.45,7.45,0,0,1,4.377,1.8,4.684,4.684,0,0,1,1.548,3.528,4.826,4.826,0,0,1-.533,2.213,5.454,5.454,0,0,1-1.531,1.831,7.747,7.747,0,0,1-2.48,1.248,11.262,11.262,0,0,1-3.378.466,15.591,15.591,0,0,1-4.96-.766,14.729,14.729,0,0,1-4.394-2.4Z" transform="translate(-355.784 -152.857)" fill="#fff"/>
      <path id="Path_19885" data-name="Path 19885" d="M546.457,216.38H540.6v-1.93h13.846v1.93h-5.858v11.949h-2.13Z" transform="translate(-428.137 -169.838)" fill="#fff"/>
      <path id="Path_19886" data-name="Path 19886" d="M622.046,227.368a10.123,10.123,0,0,1-3.462-.566,8.084,8.084,0,0,1-2.679-1.565,7.05,7.05,0,0,1-1.731-2.347A6.936,6.936,0,0,1,615.9,214.8a8.261,8.261,0,0,1,2.679-1.548,10.117,10.117,0,0,1,3.462-.566,10.224,10.224,0,0,1,3.5.566,8.271,8.271,0,0,1,2.679,1.548,6.947,6.947,0,0,1,1.731,2.313,7.117,7.117,0,0,1,0,5.792,7.112,7.112,0,0,1-1.731,2.33,8.093,8.093,0,0,1-2.679,1.565,10.229,10.229,0,0,1-3.5.566m0-2a7.654,7.654,0,0,0,2.6-.417,6.25,6.25,0,0,0,2-1.135,4.757,4.757,0,0,0,1.265-1.7,5.136,5.136,0,0,0,.433-2.087,4.967,4.967,0,0,0-.449-2.087,5.028,5.028,0,0,0-1.265-1.7,6.052,6.052,0,0,0-1.981-1.135,7.659,7.659,0,0,0-2.6-.418,7.514,7.514,0,0,0-2.58.418,6.078,6.078,0,0,0-1.964,1.135,5.061,5.061,0,0,0-1.265,1.686,5.147,5.147,0,0,0,0,4.207,5.063,5.063,0,0,0,1.265,1.686,6.075,6.075,0,0,0,1.964,1.135,7.509,7.509,0,0,0,2.58.417" transform="translate(-485.919 -168.443)" fill="#fff"/>
      <path id="Path_19887" data-name="Path 19887" d="M716.2,228.456h-2.163V214.609h9.553a4.994,4.994,0,0,1,3.328,1.015,3.527,3.527,0,0,1,1.2,2.846,3.818,3.818,0,0,1-.915,2.546,4.029,4.029,0,0,1-2.513,1.348l3.861,6.091h-2.363l-3.927-6.058H716.2Zm7.39-8.055q2.3,0,2.3-1.914,0-1.88-2.3-1.881H716.2V220.4Z" transform="translate(-565.495 -169.964)" fill="#fff"/>
      <path id="Path_19888" data-name="Path 19888" d="M802.2,214.449h12.981v2H804.326v3.495h7.123v2h-7.123v4.394h11.45v2H802.2Z" transform="translate(-635.314 -169.837)" fill="#fff"/>
      <path id="Path_19889" data-name="Path 19889" d="M30.907,233.646a10.669,10.669,0,0,1-2.17-3.078c-.407-1.075-2.056-5.958-3.192-9.381s-2.7-7.917-3.746-11.023-2.465-7.231-2.877-8.512-1.006-.206-1.278.434-5.7,13.326-7.3,17.072-4.062,9.429-5.158,11.377a7.228,7.228,0,0,1-3.379,3.256c-1.006.458-1.487.215-1.735.519,0,0-.161.389,0,.613,0,0,.092.276.729.276H11.143s1.388.171,1.348-.641c-.055-.976-1.165-.565-2.011-1.136a3.475,3.475,0,0,1-1.758-2.47c-.069-1.365.774-2.8,1.46-4.2h9.841c.565,1.6,1.2,2.581.866,4.221a4.822,4.822,0,0,1-2.033,3.081c-.523.229-.454.935.161.935s10.591.028,11.343,0,1.276-.591.548-1.346M11.613,223.2l4-8.879,3.348,8.879Z" transform="translate(0 -159.229)" fill="#b29e6e" fill-rule="evenodd"/>
      <path id="Path_19890" data-name="Path 19890" d="M122.074,171.4a9.273,9.273,0,0,1-2.222-3.044c-.518-1.222-2.131-6.152-3.165-9.256s-6.484-19.136-6.727-19.838-.633-.762-1.184.515-3.1,7.395-4.956,11.687-3.9,9.161-5.264,12.108-2.349,6.274-5.541,7.915V147.931c2.5,0,3.345.911,3.435,2.376s.4,2.856,1.588,2.856.914-3.8.972-5.874c.058-2.253.027-6.268.027-7.18s-.211-2.192-1-2.25-1.374,1.068-1.435,1.853.4,3.441-3.558,3.441V134.57s3.989-.453,6.388-.453a18.38,18.38,0,0,1,6.694,1.608c1.37.638,3.474,2.121,3.955,1.828.4-.244-.908-3.471-1.611-5.568s-1.519-4.287-1.825-5.05-.755-1.007-1.916-.152a9.342,9.342,0,0,1-5.449,1.67c-2.463.034-7.97-.148-10.013-.148s-5.959.182-7.455.182a23.242,23.242,0,0,1-7.393-1.1,23.775,23.775,0,0,1-6.635-4.626c-.758-.88-1.552-.03-.82,2.01a16.749,16.749,0,0,0,5.63,7.4c3.195,2.433,6.911,2.681,11.869,2.16V172.9a4.212,4.212,0,0,1-2.6,4.155c-2.011,1.049-2.515,1.689-1.462,2.055s4.654,1.1,6.251,1.965c1.1.59,2.236,2.6,3.883,3.783a6.733,6.733,0,0,0,7.259.687c3.331-1.461,4.242-3.014,4.473-3.375s.449-1.317-1.506-1.145c-2.465.232-4.474-.912-4.978-1.778-.9-1.555-2.006-3.378-2.783-3.791V172.9h9.9c.956,0,1.1-1.319-.276-1.46a3.262,3.262,0,0,1-2.83-3.013c0-1.549,1.554-3.971,1.554-3.971h9.72a9.437,9.437,0,0,1,1.053,3.421,5.271,5.271,0,0,1-1.922,3.7c-.721.385-.866,1.137.139,1.137h11.273a.721.721,0,0,0,.459-1.319M102.72,160.941l4.017-8.9,3.284,8.9Z" transform="translate(-52.804 -96.95)" fill="#b29e6e" fill-rule="evenodd"/>
      <path id="Path_19891" data-name="Path 19891" d="M46.407,38.653l1.38,4.209,4.43.012L48.64,45.488,50,49.7,46.407,47.11,42.816,49.7l1.358-4.216L40.6,42.874l4.43-.012Z" transform="translate(-32.151 -30.612)" fill="#b29e6e" fill-rule="evenodd"/>
      <path id="Path_19892" data-name="Path 19892" d="M245.757,38.653l1.38,4.209,4.43.012-3.578,2.614,1.358,4.216-3.591-2.594L242.166,49.7l1.358-4.216-3.577-2.614,4.43-.012Z" transform="translate(-190.031 -30.612)" fill="#b29e6e" fill-rule="evenodd"/>
      <path id="Path_19893" data-name="Path 19893" d="M134.676,0l2.438,7.435,7.825.021-6.319,4.617,2.4,7.448-6.343-4.582-6.343,4.582,2.4-7.448-6.319-4.617,7.825-.021Z" transform="translate(-98.532 0)" fill="#b29e6e" fill-rule="evenodd"/>
    </g>
  </g>
</svg>
