<svg width="32" height="40" viewBox="0 0 32 40" fill="none" xmlns="http://www.w3.org/2000/svg">
<g id="Logo">
<path id="Vector" d="M26.1534 33.7579L27.194 34.7198C25.5782 36.4685 23.5578 37.8378 21.2814 38.6789L20.7908 37.349C22.8555 36.586 24.688 35.344 26.1534 33.7579Z" fill="#A9936F"/>
<path id="Vector_2" d="M19.7584 37.6847L20.1432 39.049C18.8259 39.4204 17.4362 39.6191 16.0001 39.6191C14.5677 39.6191 13.1814 39.4215 11.8672 39.0518L12.252 37.6876C13.4439 38.0227 14.7011 38.2019 16.0001 38.2019C17.3028 38.2019 18.5635 38.0217 19.7584 37.6847Z" fill="#A9936F"/>
<path id="Vector_3" d="M11.2192 37.3527L10.7285 38.6825C8.45092 37.8428 6.42924 36.4745 4.81213 34.7264L5.85275 33.7645C7.31956 35.35 9.1533 36.591 11.2192 37.3527Z" fill="#A9936F"/>
<path id="Vector_4" d="M26.8585 32.9327C28.7139 30.58 29.8211 27.6098 29.8211 24.381C29.8211 16.7479 23.6333 10.56 16.0002 10.56C8.36707 10.56 2.17923 16.7479 2.17923 24.381C2.17923 27.6129 3.28851 30.5856 5.14711 32.9393L4.03428 33.8169C1.98511 31.2218 0.762085 27.9442 0.762085 24.381C0.762085 15.9652 7.58442 9.14288 16.0002 9.14288C24.4159 9.14288 31.2383 15.9652 31.2383 24.381C31.2383 27.9411 30.0174 31.2162 27.9714 33.8101L26.8585 32.9327Z" fill="#A9936F"/>
<path id="Vector_5" d="M4.18136 24.3809C4.18136 17.8644 9.48368 12.5623 16 12.5623C22.5164 12.5623 27.8187 17.8644 27.8187 24.3809C27.8187 30.8975 22.5166 36.1991 15.9998 36.1991C9.48288 36.1991 4.18136 30.8984 4.18136 24.3809ZM3.61145 24.3809C3.61145 31.2125 9.16904 36.7695 16 36.7695C22.831 36.7695 28.3886 31.2125 28.3886 24.3809C28.3886 17.5494 22.832 11.9924 16 11.9924C9.16807 11.9924 3.61145 17.5503 3.61145 24.3809Z" fill="#A9936F"/>
<path id="Vector_6" d="M24.5487 24.381C24.5487 29.1022 20.7214 32.9295 16.0001 32.9295C11.2789 32.9295 7.45154 29.1022 7.45154 24.381C7.45154 19.6597 11.2789 15.8324 16.0001 15.8324C20.7214 15.8324 24.5487 19.6597 24.5487 24.381ZM16.0001 16.3246C11.5507 16.3246 7.94372 19.9315 7.94372 24.381C7.94372 28.8304 11.5507 32.4374 16.0001 32.4374C20.4495 32.4374 24.0565 28.8304 24.0565 24.381C24.0565 19.9315 20.4495 16.3246 16.0001 16.3246Z" fill="#A9936F"/>
<path id="Vector_7" d="M9.14559 18.1915C9.57991 17.7257 9.57707 17.2163 9.14239 16.8114C8.72142 16.4192 8.2227 16.4614 7.78839 16.9272L7.38159 17.3635L8.73879 18.6278L9.14559 18.1915ZM8.06075 17.1515C8.31364 16.8803 8.60615 16.87 8.86385 17.1101C9.13331 17.3611 9.15142 17.6571 8.89671 17.9303L8.74825 18.0895L7.91229 17.3107L8.06075 17.1515Z" fill="#A9936F"/>
<path id="Vector_8" d="M11.233 16.4435L11.0292 16.1531L10.3609 16.6229L10.1217 16.282L10.6844 15.8863L10.493 15.6136L9.93026 16.0092L9.69869 15.6792L10.345 15.2248L10.1459 14.941L9.172 15.6257L10.2372 17.1436L11.233 16.4435Z" fill="#A9936F"/>
<path id="Vector_9" d="M12.3885 15.9237C12.8509 15.7265 12.9937 15.3558 12.788 14.8737L12.3618 13.8749L11.9984 14.03L12.4256 15.0312C12.5385 15.2958 12.4746 15.4954 12.2546 15.5893C12.0346 15.6832 11.8438 15.5922 11.7309 15.3276L11.3037 14.3263L10.9353 14.4835L11.3615 15.4823C11.5683 15.9669 11.9361 16.1168 12.3885 15.9237Z" fill="#A9936F"/>
<path id="Vector_10" d="M14.0082 15.3599L14.4013 15.2826L14.1097 13.8089L14.6294 13.7068L14.561 13.3615L13.1312 13.6424L13.1996 13.9878L13.7166 13.8862L14.0082 15.3599Z" fill="#A9936F"/>
<path id="Vector_11" d="M16.4968 14.6103C16.4927 14.2905 16.3271 14.1696 16.0245 14.0456C15.7814 13.9474 15.6894 13.9006 15.6904 13.7662C15.6891 13.6641 15.7716 13.6009 15.9033 13.5987C16.0806 13.5958 16.1788 13.7017 16.2334 13.7733L16.4694 13.5222C16.3627 13.3815 16.1917 13.2473 15.8827 13.2523C15.5226 13.2583 15.2809 13.4853 15.2849 13.7917C15.2892 14.1249 15.5059 14.2611 15.7868 14.3693C15.9947 14.4439 16.079 14.515 16.0807 14.6467C16.0821 14.7568 15.997 14.8308 15.8277 14.8337C15.6262 14.837 15.5116 14.6991 15.454 14.6167L15.2156 14.884C15.3168 15.0275 15.5044 15.1937 15.8403 15.1882C16.2623 15.1812 16.5009 14.9273 16.4968 14.6103Z" fill="#A9936F"/>
<path id="Vector_12" d="M17.8954 15.0079C17.5756 14.9488 17.4011 14.6677 17.4685 14.3056C17.5344 13.9515 17.7975 13.7568 18.12 13.8165C18.3023 13.8502 18.426 13.9497 18.4919 14.1095L18.8195 13.9213C18.7094 13.6904 18.5184 13.5266 18.1855 13.465C17.6331 13.3628 17.1701 13.6763 17.0657 14.2366C16.9569 14.8207 17.2603 15.2622 17.8231 15.3664C18.1826 15.4328 18.4205 15.3293 18.6007 15.1548L18.3771 14.8729C18.2662 14.9836 18.1279 15.0509 17.8954 15.0079Z" fill="#A9936F"/>
<path id="Vector_13" d="M19.9855 16.0408L20.3531 16.1995L21.0878 14.4958L20.7202 14.3372L20.4263 15.0187L19.7676 14.7344L20.0614 14.0529L19.6937 13.8943L18.9591 15.5979L19.3267 15.7566L19.6259 15.0628L20.2848 15.347L19.9855 16.0408Z" fill="#A9936F"/>
<path id="Vector_14" d="M21.8757 17.2266L22.0808 16.9371L21.4145 16.4643L21.6553 16.1243L22.2164 16.5224L22.409 16.2505L21.8479 15.8523L22.081 15.5233L22.7253 15.9805L22.9258 15.6976L21.9548 15.0086L20.8828 16.522L21.8757 17.2266Z" fill="#A9936F"/>
<path id="Vector_15" d="M22.5513 17.8689L23.0066 17.4389L23.1007 17.5385L22.9315 18.2714L23.2655 18.625L23.4316 17.8027C23.6678 17.9197 23.9063 17.8904 24.1037 17.704C24.3928 17.4309 24.359 17.082 24.0249 16.7283L23.6245 16.3043L22.2764 17.5777L22.5513 17.8689ZM23.6455 16.8353L23.7765 16.9741C23.9334 17.1402 23.9441 17.3002 23.819 17.4183C23.6842 17.5456 23.525 17.5297 23.3662 17.3616L23.2352 17.2229L23.6455 16.8353Z" fill="#A9936F"/>
<path id="Vector_16" d="M6.7248 28.4028L7.18404 28.1974L7.48889 28.8789L7.80891 28.7358L7.34127 27.6903L5.65576 28.4442L5.81855 28.8082L6.4146 28.5416L6.68994 29.1571L7.00015 29.0184L6.7248 28.4028Z" fill="#A9936F"/>
<path id="Vector_17" d="M8.71275 30.0964L7.83306 30.7296C7.60066 30.8969 7.39272 30.8784 7.2534 30.6852C7.11412 30.4921 7.16089 30.287 7.3933 30.1197L8.27299 29.4865L8.0398 29.1631L7.16227 29.7947C6.73657 30.1012 6.67127 30.4911 6.95764 30.8883C7.25031 31.2941 7.64178 31.3519 8.06531 31.047L8.94285 30.4155L8.71275 30.0964Z" fill="#A9936F"/>
<path id="Vector_18" d="M9.56955 31.4527C9.69973 31.5721 9.69837 31.7162 9.68903 31.8056L10.0308 31.7852C10.0497 31.6099 10.0177 31.3953 9.79097 31.1872C9.5267 30.9448 9.19723 30.9439 8.99112 31.1689C8.76696 31.4136 8.83069 31.661 8.95984 31.9321C9.05927 32.1286 9.07155 32.238 8.98299 32.3347C8.90885 32.4157 8.79693 32.411 8.67268 32.297C8.5248 32.1613 8.53598 31.9827 8.55062 31.8835L8.19601 31.9141C8.17134 32.0876 8.19349 32.3368 8.43996 32.563C8.74959 32.8471 9.09516 32.8264 9.30851 32.5935C9.52365 32.3586 9.48653 32.1575 9.35245 31.86C9.24368 31.6222 9.20914 31.5252 9.30154 31.4283C9.3702 31.3533 9.47295 31.364 9.56955 31.4527Z" fill="#A9936F"/>
<path id="Vector_19" d="M11.0878 32.1764C10.7851 31.9842 10.4607 32.0413 10.2974 32.2991C10.1198 32.5794 10.2261 32.8117 10.4008 33.0557C10.5332 33.2316 10.5646 33.3372 10.4944 33.4479C10.4357 33.5406 10.3248 33.5557 10.1824 33.4655C10.013 33.3579 9.99262 33.1801 9.98957 33.0799L9.64587 33.1724C9.65212 33.3476 9.71779 33.5889 10.0002 33.7682C10.3548 33.9933 10.6913 33.9121 10.8603 33.6453C11.0307 33.3763 10.9588 33.1848 10.7745 32.9157C10.6257 32.7008 10.5746 32.6113 10.6485 32.4997C10.7029 32.4139 10.8059 32.4063 10.9166 32.4765C11.0657 32.5713 11.0897 32.7133 11.0962 32.803L11.4291 32.7226C11.4168 32.5469 11.3476 32.3412 11.0878 32.1764Z" fill="#A9936F"/>
<path id="Vector_20" d="M12.5916 32.986L12.032 32.7638L11.3506 34.4798L11.9475 34.7169C12.3628 34.8817 12.6483 34.7791 12.7618 34.4931C12.8517 34.2669 12.7503 34.0654 12.5841 33.962L12.5861 33.9569C12.7615 33.9719 12.9313 33.8925 13.0191 33.6711C13.1278 33.3975 12.9945 33.146 12.5916 32.986ZM12.4125 34.2997C12.3602 34.4316 12.2361 34.4687 12.0495 34.3945L11.8456 34.3136L12.0085 33.9033L12.2099 33.9832C12.3965 34.0573 12.4648 34.168 12.4125 34.2997ZM12.6348 33.5877C12.5845 33.7145 12.4643 33.756 12.3002 33.6908L12.1211 33.6197L12.2791 33.2218L12.4582 33.2929C12.6273 33.3601 12.6862 33.4583 12.6348 33.5877Z" fill="#A9936F"/>
<path id="Vector_21" d="M14.1241 33.4473L14.1643 33.6201L13.2053 35.1617L13.6166 35.2336L13.811 34.9007L14.4543 35.0132L14.5235 35.3922L14.9505 35.4668L14.5406 33.5201L14.1241 33.4473ZM13.9823 34.6073L14.2828 34.0892L14.2881 34.09L14.3936 34.6793L13.9823 34.6073Z" fill="#A9936F"/>
<path id="Vector_22" d="M16.1125 35.1216L16.0896 33.634L15.6909 33.6404L15.7192 35.4866L16.7922 35.4695L16.7867 35.1109L16.1125 35.1216Z" fill="#A9936F"/>
<path id="Vector_23" d="M17.8637 34.9604L17.5991 33.4965L17.2065 33.5672L17.5349 35.384L18.5913 35.1938L18.5276 34.841L17.8637 34.9604Z" fill="#A9936F"/>
<path id="Vector_24" d="M19.3887 33.9116L18.7255 34.1219L18.8209 34.4229L19.4841 34.2126L19.3887 33.9116Z" fill="#A9936F"/>
<path id="Vector_25" d="M20.9283 33.2777L20.9258 33.273C21.053 33.1511 21.1055 32.9711 20.9974 32.7588C20.8639 32.4965 20.587 32.4303 20.2009 32.6272L19.6646 32.9007L20.5022 34.5466L21.0743 34.2549C21.4723 34.0518 21.5839 33.7696 21.4443 33.4953C21.3338 33.2782 21.1157 33.2212 20.9283 33.2777ZM20.3657 33.3994L20.1715 33.0177L20.3431 32.9303C20.5051 32.8475 20.6178 32.8682 20.6809 32.9923C20.7429 33.1139 20.6947 33.2316 20.5374 33.3119L20.3657 33.3994ZM20.8999 33.9652L20.7044 34.0649L20.5041 33.6713L20.6972 33.5728C20.876 33.4817 21.0042 33.5034 21.0684 33.6298C21.1328 33.7563 21.0786 33.8741 20.8999 33.9652Z" fill="#A9936F"/>
<path id="Vector_26" d="M22.4485 31.0607L22.1439 31.3095L22.8295 32.1493C23.0107 32.3712 23.005 32.5799 22.8205 32.7306C22.6361 32.8813 22.4284 32.8469 22.2473 32.6251L21.5616 31.7852L21.2529 32.0375L21.9369 32.8753C22.2687 33.2817 22.6619 33.3234 23.0412 33.0136C23.4286 32.697 23.4625 32.3027 23.1324 31.8984L22.4485 31.0607Z" fill="#A9936F"/>
<path id="Vector_27" d="M23.57 29.7162L24.4658 30.4037L24.4642 30.4058L23.0906 30.3403L22.8003 30.7182L23.0272 30.7304L24.3434 31.7404L24.5831 31.4283L23.6915 30.7441L23.6947 30.7399L25.056 30.8127L25.2745 30.5282L23.8097 29.4042L23.57 29.7162Z" fill="#A9936F"/>
<path id="Vector_28" d="M25.619 27.7727C25.0968 27.5374 24.64 27.7367 24.3791 28.3149L24.1348 28.8564L25.818 29.6148L26.0623 29.0733C26.3233 28.4951 26.158 28.0156 25.619 27.7727ZM25.7443 28.9064L25.6551 29.104L24.6184 28.6369L24.7075 28.4393C24.8594 28.1027 25.132 27.9995 25.4516 28.1435C25.7858 28.294 25.8973 28.5674 25.7443 28.9064Z" fill="#A9936F"/>
<path id="Vector_29" d="M22.8219 25.1613C22.8219 25.1613 21.522 20.8506 21.3113 20.1594C21.1309 19.5677 20.668 19.6055 20.668 19.6055C20.668 19.6055 20.5155 19.6131 19.2908 19.5989C18.1097 19.5866 17.9961 19.8811 18.8359 20.9907C19.1024 21.3429 18.9988 21.3931 18.3156 21.5124C17.6321 21.6307 17.3059 20.9632 17.2661 20.6697C17.2264 20.3753 17.0753 19.331 17.0574 19.2798C17.0133 19.1548 17.3329 19.0611 17.4887 19.1615C17.775 19.3442 17.7348 19.4029 17.7348 18.8604C17.7348 18.3169 17.0171 18.3615 17.0171 18.3615C16.9703 17.7867 16.1125 17.8852 15.8374 17.9032C15.5624 17.9221 15.2864 18.1219 14.5536 18.1219C13.8212 18.1219 13.9491 19.0621 13.9491 19.0621C13.9491 19.0621 14.2894 18.9608 14.5484 18.9674C14.8045 18.974 15.4687 18.9608 15.2679 19.3679C15.2679 19.3679 14.7363 19.1795 14.4859 19.1795C14.2354 19.1795 13.6347 19.1738 13.4847 18.9551C13.3346 18.7364 13.2782 18.6673 13.2782 18.6673C13.2782 18.6673 13.1092 19.3546 13.4974 19.4237C13.8856 19.4929 14.2861 19.4237 14.4736 19.4114C14.6611 19.3982 15.0308 19.3982 15.1306 19.4114C15.2306 19.4237 15.124 19.5298 14.9299 19.543C14.7363 19.5554 14.2918 19.5241 14.4111 19.7239C14.5295 19.9246 14.7363 20.0373 14.8608 20.0619C14.9863 20.0874 15.3304 20.0307 15.1799 20.3999L15.0956 20.6461C14.999 20.9273 14.6984 21.59 14.0149 21.4698C13.3313 21.3524 13.2286 21.3022 13.4937 20.9509C14.3339 19.8404 14.2212 19.5459 13.0392 19.5582C11.815 19.5724 11.6625 19.5639 11.6625 19.5639C11.6625 19.5639 11.1995 19.526 11.0192 20.1177C10.8081 20.8089 9.17816 25.1859 9.17816 25.1859C9.17816 25.1859 9.10526 25.6091 9.46077 25.7275C9.92754 25.8818 10.0795 25.4302 10.0795 25.4302L11.262 22.2963C11.3501 22.3512 11.4367 22.4052 11.5243 22.4563L10.0473 26.5521C10.0473 26.5521 9.89633 27.0037 10.373 27.1704C10.7991 27.3181 10.9908 26.787 10.9908 26.787L12.4129 22.9117C12.4886 22.9439 12.5644 22.9761 12.6382 23.0064L11.1404 27.2868C11.1404 27.2868 11.0027 27.746 11.4453 27.8956C11.8869 28.0462 12.0659 27.5207 12.0659 27.5207L13.5523 23.3131C13.6409 23.3368 13.7284 23.3586 13.8141 23.3785C13.8132 23.3832 13.8127 23.387 13.8127 23.387L13.0572 25.9111C13.0572 25.9111 12.9322 26.3448 13.3573 26.5114C13.7834 26.678 14.0163 26.1109 14.0163 26.1109L14.7084 23.8831C14.7084 23.8831 14.9924 25.0429 14.4915 25.8524C13.9912 26.6619 13.5007 27.2026 12.8583 27.5027C12.8583 27.5027 12.8754 27.5955 13.1088 27.6106C13.3422 27.6286 13.3587 27.6873 13.3924 27.7281L13.06 28.2374C13.06 28.2374 13.0093 28.4211 12.784 28.3217C12.5587 28.2213 12.2756 28.0708 12.2756 28.0708C12.2756 28.0708 11.983 27.9969 11.9163 28.138L11.8496 28.28C11.8496 28.28 11.5163 28.3131 11.4737 28.5044C11.4325 28.6966 11.4912 28.7212 11.4912 28.7212C11.4912 28.7212 11.6422 28.6152 11.7075 28.6559C11.7965 28.7089 11.7245 28.8698 11.8282 28.9078C12.0148 28.9749 12.1511 28.8708 12.2505 28.7808C12.3159 28.7202 12.4758 28.7885 12.4834 28.8386C12.4919 28.8888 12.4167 29.0213 12.225 29.0469C12.0332 29.0725 11.6162 29.1463 11.6403 29.3641C11.6621 29.5478 11.6649 29.5639 11.6658 29.5648C11.6635 29.5686 11.5097 29.899 11.8245 30.023C11.8245 30.023 11.8751 29.8233 11.9414 29.8233C12.0081 29.8233 12.0659 29.9398 12.1833 29.9398C12.3002 29.9398 12.4086 29.8394 12.4758 29.6396C12.5417 29.4389 12.6586 29.1719 12.6586 29.1719C12.6586 29.1719 12.7419 29.0725 12.7921 29.0886C12.8422 29.1056 12.8678 29.1974 12.8508 29.2552C12.8342 29.3148 12.8006 29.4474 12.7921 29.4815C12.784 29.5137 12.5009 29.8649 12.7258 30.0325C12.9506 30.1982 12.9261 30.2654 12.9838 30.3061C13.0425 30.3487 13.2759 30.4311 13.3597 30.3819C13.3597 30.3819 13.2598 30.1982 13.2342 30.1651C13.2091 30.1319 13.2176 30.0656 13.3758 30.0656C13.5348 30.0656 13.5348 29.8649 13.4349 29.7144C13.3346 29.5648 13.3 29.4199 13.2674 29.3224C13.2025 29.1255 13.3795 29.0545 13.46 29.2552C13.5372 29.4493 13.5055 29.6377 13.6768 29.6103C13.8042 29.5904 13.8345 29.5061 13.8932 29.5137C13.9519 29.5222 14.1171 29.6377 14.0286 29.8517C14.0286 29.8517 14.4187 29.7882 14.2861 29.4313C14.1981 29.1946 14.0901 29.3129 14.1606 29.081C14.2151 28.8982 14.0522 28.7638 13.86 28.7714C13.6801 28.7789 13.4463 28.7307 13.5604 28.5129C13.6801 28.2819 13.8439 28.0045 13.8439 28.0045L14.1185 28.3217C14.1185 28.3217 14.3779 27.6712 14.6113 27.3787C14.8447 27.087 15.1287 26.7273 15.2618 26.803C15.3953 26.8778 15.4365 27.8208 15.3285 28.2961C15.2201 28.7714 14.8277 29.8147 14.7363 29.9567C14.6445 30.0978 15.2532 29.8649 15.3285 29.8393C15.4033 29.8147 15.5539 29.631 15.5865 29.9151C15.6206 30.1982 15.7314 30.7378 15.9894 31.0143L15.9955 31.0077C16.2545 30.7322 16.38 30.1736 16.4131 29.8895C16.4462 29.6065 16.5962 29.7901 16.672 29.8147C16.7463 29.8393 17.3556 30.0732 17.2633 29.9312C17.1719 29.7901 16.78 28.7467 16.672 28.2715C16.5631 27.7962 16.6048 26.8522 16.7388 26.7774C16.8718 26.7026 17.1549 27.0624 17.3887 27.3531C17.6221 27.6456 17.8811 28.2961 17.8811 28.2961L18.1561 27.9789C18.1561 27.9789 18.3199 28.2563 18.4402 28.4883C18.5533 28.7051 18.3199 28.7543 18.14 28.7467C17.9474 28.7392 17.7845 28.8736 17.8399 29.0554C17.9095 29.2874 17.8021 29.17 17.7144 29.4067C17.5819 29.7636 17.971 29.827 17.971 29.827C17.8825 29.6121 18.0477 29.4976 18.1064 29.4891C18.1651 29.4815 18.1954 29.5658 18.3232 29.5856C18.4946 29.6121 18.4633 29.4237 18.5405 29.2306C18.6205 29.0299 18.7976 29.0999 18.7322 29.2978C18.6996 29.3953 18.6655 29.5392 18.5651 29.6897C18.4652 29.8393 18.4652 30.0401 18.6238 30.0401C18.7825 30.0401 18.7909 30.1064 18.7658 30.1395C18.7403 30.1736 18.6404 30.3573 18.6404 30.3573C18.7237 30.4074 18.9571 30.3232 19.0162 30.2815C19.0745 30.2399 19.0494 30.1736 19.2747 30.0069C19.4996 29.8394 19.2156 29.4891 19.208 29.4559C19.199 29.4218 19.1654 29.2893 19.1493 29.2306C19.1327 29.1719 19.1573 29.081 19.208 29.0639C19.2577 29.0469 19.341 29.1463 19.341 29.1463C19.341 29.1463 19.4579 29.4143 19.5247 29.614C19.591 29.8147 19.7003 29.9151 19.8163 29.9151C19.9337 29.9151 19.9915 29.7977 20.0587 29.7977C20.1254 29.7977 20.1756 29.9985 20.1756 29.9985C20.4904 29.8734 20.3361 29.544 20.3342 29.5402C20.3347 29.5392 20.3375 29.5222 20.3593 29.3395C20.3834 29.1217 19.9668 29.0469 19.7751 29.0213C19.5829 28.9967 19.5086 28.8633 19.5162 28.814C19.5247 28.7629 19.6837 28.6957 19.75 28.7553C19.8494 28.8452 19.9844 28.9494 20.1713 28.8822C20.276 28.8452 20.2036 28.6843 20.2925 28.6303C20.3583 28.5906 20.5093 28.6966 20.5093 28.6966C20.5093 28.6966 20.5671 28.6711 20.5264 28.4798C20.4847 28.2876 20.1505 28.2545 20.1505 28.2545L20.0838 28.1124C20.0165 27.9714 19.7254 28.0462 19.7254 28.0462C19.7254 28.0462 19.4409 28.1967 19.2156 28.2961C18.9912 28.3965 18.941 28.2128 18.941 28.2128L18.674 27.6372C18.7067 27.5955 18.7237 27.5368 18.9571 27.5207C19.1904 27.5037 19.2079 27.4118 19.2079 27.4118C18.5651 27.1117 18.2399 26.6695 17.7395 25.86C17.2386 25.0515 17.5222 23.8916 17.5222 23.8916L18.2148 26.1194C18.2148 26.1194 18.4486 26.6866 18.8742 26.519C19.2993 26.3524 19.1743 25.9187 19.1743 25.9187L18.4022 23.3321C18.4022 23.3321 18.4018 23.3311 18.4008 23.3264C18.4855 23.3046 18.5717 23.28 18.6588 23.2535L19.9337 27.496C19.9337 27.496 20.1126 28.0215 20.5552 27.871C20.9969 27.7214 20.8596 27.2613 20.8596 27.2613L19.5635 22.9202C19.6373 22.889 19.7112 22.8549 19.7855 22.8199C19.7864 22.8218 19.7869 22.8237 19.7869 22.8237L21.0092 26.7613C21.0092 26.7613 21.2005 27.2935 21.6265 27.1448C22.1032 26.9791 21.9522 26.5275 21.9522 26.5275L20.6632 22.3398C20.6632 22.3398 20.6627 22.3398 20.6627 22.3389C20.745 22.2868 20.8279 22.2347 20.9103 22.1789C20.9349 22.2044 20.942 22.2328 20.942 22.2328L21.9205 25.4055C21.9205 25.4055 22.072 25.8562 22.5397 25.7009C22.8948 25.5845 22.8219 25.1613 22.8219 25.1613ZM9.79026 25.2342C9.79026 25.2342 9.71265 25.488 9.56635 25.4179C9.4215 25.3478 9.52989 25.1386 9.52989 25.1386C9.52989 25.1386 10.6561 22.2414 10.7688 21.9593C10.8488 22.018 10.9297 22.0748 11.0093 22.1297L9.79026 25.2342ZM10.6921 26.6052C10.6921 26.6052 10.6201 26.8608 10.4734 26.7945C10.3262 26.7292 10.4294 26.5171 10.4294 26.5171C10.4294 26.5171 11.6403 23.1645 11.8349 22.6315C11.9215 22.6769 12.0076 22.7214 12.0924 22.7631L10.6921 26.6052ZM11.7601 27.3834C11.7601 27.3834 11.6914 27.64 11.5442 27.5747C11.3965 27.5113 11.4968 27.2982 11.4968 27.2982C11.4968 27.2982 12.7296 23.7648 12.954 23.1267C13.0454 23.1589 13.1367 23.1901 13.2262 23.2185L11.7601 27.3834ZM13.6778 26.0039C13.6778 26.0039 13.621 26.2624 13.47 26.2047C13.3199 26.146 13.4117 25.9301 13.4117 25.9301C13.4117 25.9301 13.9987 23.9627 14.1541 23.4495C14.2525 23.4685 14.3477 23.4836 14.44 23.4968L13.6778 26.0039ZM15.8057 18.6606C15.6873 18.655 15.5804 18.5357 15.5804 18.5357C15.5804 18.5357 15.6433 18.4173 15.8 18.423C15.9562 18.4296 16.0254 18.5357 16.0254 18.5357C16.0254 18.5357 15.925 18.6673 15.8057 18.6606ZM18.8156 25.9358C18.8156 25.9358 18.9069 26.1526 18.7573 26.2113C18.6068 26.2681 18.549 26.0106 18.549 26.0106L17.7764 23.5413C17.7764 23.5413 17.7589 23.5101 17.7859 23.4627C17.8673 23.4485 17.9512 23.4315 18.0378 23.4135C18.087 23.5641 18.8156 25.9358 18.8156 25.9358ZM20.5264 27.2868C20.5264 27.2868 20.6178 27.5037 20.4672 27.5624C20.3167 27.6211 20.2594 27.3616 20.2594 27.3616L18.9595 23.157C19.0489 23.1267 19.1389 23.0935 19.2293 23.0584C19.3709 23.5101 20.5264 27.2868 20.5264 27.2868ZM21.6015 26.5361C21.6015 26.5361 21.6933 26.7528 21.5437 26.8115C21.3937 26.8702 21.3349 26.6109 21.3349 26.6109L20.1107 22.657C20.196 22.6125 20.2812 22.5652 20.3673 22.5169C20.4521 22.783 21.6015 26.5361 21.6015 26.5361ZM22.4191 25.3933C22.2699 25.4519 22.2108 25.1925 22.2108 25.1925L21.2204 21.9611C21.3009 21.9024 21.3818 21.8409 21.4628 21.7775C21.4633 21.7794 21.4642 21.7803 21.4642 21.7813C21.4912 21.8589 22.4778 25.1177 22.4778 25.1177C22.4778 25.1177 22.5696 25.3346 22.4191 25.3933Z" fill="#A9936F"/>
<path id="Vector_30" d="M2.56374 5.78031H0.00012207L2.07296 7.35657L1.28165 9.90473L3.35574 8.32987L5.42978 9.90473L4.63821 7.35657L6.71114 5.78031H4.14796L3.35574 3.2323L2.56374 5.78031Z" fill="#A9936F"/>
<path id="Vector_31" d="M10.9933 2.54801H8.42969L10.5025 4.12427L9.71121 6.67242L11.7853 5.09757L13.8594 6.67242L13.0678 4.12427L15.1407 2.54801H12.5775L11.7853 0L10.9933 2.54801Z" fill="#A9936F"/>
<path id="Vector_32" d="M19.423 2.54801H16.8594L18.9322 4.12427L18.1409 6.67242L20.215 5.09757L22.289 6.67242L21.4975 4.12427L23.5704 2.54801H21.0072L20.215 0L19.423 2.54801Z" fill="#A9936F"/>
<path id="Vector_33" d="M27.8527 5.78031H25.2891L27.3619 7.35657L26.5706 9.90473L28.6447 8.32987L30.7187 9.90473L29.9271 7.35657L32.0001 5.78031H29.4369L28.6447 3.2323L27.8527 5.78031Z" fill="#A9936F"/>
</g>
</svg>
